# Blender v2.80 (sub 75) OBJ File: 'Coin.blend'
# www.blender.org
mtllib Coin.mtl
o Rat_picture_back_Rat_picture.002
v -0.007586 2.258646 0.816667
v -0.007586 2.258646 -0.816667
v -0.007586 3.258646 0.816667
v -0.007586 3.258646 -0.816667
v 0.000000 2.724358 -1.000000
v -0.000000 2.919448 -0.980785
v -0.000000 3.107042 -0.923880
v -0.000000 3.279928 -0.831470
v -0.000000 3.431465 -0.707107
v -0.000000 3.555828 -0.555570
v -0.000000 3.648238 -0.382683
v -0.000000 3.705143 -0.195090
v -0.000000 3.724358 -0.000000
v -0.000000 3.705143 0.195090
v -0.000000 3.648238 0.382683
v -0.000000 3.555828 0.555570
v -0.000000 3.431465 0.707107
v -0.000000 3.279928 0.831470
v -0.000000 3.107041 0.923880
v -0.000000 2.919448 0.980785
v 0.000000 2.724358 1.000000
v 0.000000 2.529267 0.980785
v 0.000000 2.341674 0.923879
v 0.000000 2.168787 0.831469
v 0.000000 2.017251 0.707106
v 0.000000 1.892888 0.555570
v 0.000000 1.800478 0.382683
v 0.000000 1.743573 0.195089
v 0.000000 1.724358 -0.000001
v 0.000000 1.743573 -0.195091
v 0.000000 1.800479 -0.382684
v 0.000000 1.892889 -0.555571
v 0.000000 2.017252 -0.707108
v 0.000000 2.168789 -0.831470
v 0.000000 2.341676 -0.923880
v 0.000000 2.529269 -0.980786
v 0.000000 2.724358 -1.000000
v -0.000000 2.919448 -0.980785
v -0.000000 3.107042 -0.923880
v -0.000000 3.279928 -0.831470
v -0.000000 3.431465 -0.707107
v -0.000000 3.555828 -0.555570
v -0.000000 3.648238 -0.382683
v -0.000000 3.705143 -0.195090
v -0.000000 3.724358 -0.000000
v -0.000000 3.705143 0.195090
v -0.000000 3.648238 0.382683
v -0.000000 3.555828 0.555570
v -0.000000 3.431465 0.707107
v -0.000000 3.279928 0.831470
v -0.000000 3.107041 0.923880
v -0.000000 2.919448 0.980785
v 0.000000 2.724358 1.000000
v 0.000000 2.529267 0.980785
v 0.000000 2.341674 0.923879
v 0.000000 2.168787 0.831469
v 0.000000 2.017251 0.707106
v 0.000000 1.892888 0.555570
v 0.000000 1.800478 0.382683
v 0.000000 1.743573 0.195089
v 0.000000 1.724358 -0.000001
v 0.000000 1.743573 -0.195091
v 0.000000 1.800479 -0.382684
v 0.000000 1.892889 -0.555571
v 0.000000 2.017252 -0.707108
v 0.000000 2.168789 -0.831470
v 0.000000 2.341676 -0.923880
v 0.000000 2.529269 -0.980786
v 0.168071 2.724358 -1.000000
v 0.168071 2.919448 -0.980785
v 0.168071 3.107042 -0.923880
v 0.168071 3.279928 -0.831470
v 0.168071 3.431465 -0.707107
v 0.168071 3.555828 -0.555570
v 0.168071 3.648238 -0.382683
v 0.168071 3.705143 -0.195090
v 0.168071 3.724358 -0.000000
v 0.168071 3.705143 0.195090
v 0.168071 3.648238 0.382683
v 0.168071 3.555828 0.555570
v 0.168071 3.431465 0.707107
v 0.168071 3.279928 0.831470
v 0.168071 3.107041 0.923880
v 0.168071 2.919448 0.980785
v 0.168071 2.724358 1.000000
v 0.168071 2.529267 0.980785
v 0.168071 2.341674 0.923879
v 0.168071 2.168787 0.831469
v 0.168071 2.017251 0.707106
v 0.168071 1.892888 0.555570
v 0.168071 1.800478 0.382683
v 0.168071 1.743573 0.195089
v 0.168071 1.724358 -0.000001
v 0.168071 1.743573 -0.195091
v 0.168071 1.800479 -0.382684
v 0.168071 1.892889 -0.555571
v 0.168071 2.017252 -0.707108
v 0.168071 2.168789 -0.831470
v 0.168071 2.341676 -0.923880
v 0.168071 2.529269 -0.980786
v 0.169193 2.258646 -0.816667
v 0.169193 2.258646 0.816667
v 0.169193 3.258646 -0.816667
v 0.169193 3.258646 0.816667
vt 0.000000 0.000000
vt 1.000000 0.000000
vt 1.000000 1.000000
vt 0.000000 1.000000
vt 0.000000 0.000000
vt 0.000000 0.000000
vt 0.000000 0.000000
vt 0.000000 0.000000
vt 0.000000 0.000000
vt 0.000000 0.000000
vt 0.000000 0.000000
vt 0.000000 0.000000
vt 0.000000 0.000000
vt 0.000000 0.000000
vt 0.000000 0.000000
vt 0.000000 0.000000
vt 0.000000 0.000000
vt 0.000000 0.000000
vt 0.000000 0.000000
vt 0.000000 0.000000
vt 0.000000 0.000000
vt 0.000000 0.000000
vt 0.000000 0.000000
vt 0.000000 0.000000
vt 0.000000 0.000000
vt 0.000000 0.000000
vt 0.000000 0.000000
vt 0.000000 0.000000
vt 0.000000 0.000000
vt 0.000000 0.000000
vt 0.000000 0.000000
vt 0.000000 0.000000
vt 0.000000 0.000000
vt 0.000000 0.000000
vt 0.000000 0.000000
vt 0.000000 0.000000
vt 0.000000 0.000000
vt 0.000000 0.000000
vt 0.000000 0.000000
vt 0.000000 0.000000
vt 0.000000 0.000000
vt 0.000000 0.000000
vt 0.000000 0.000000
vt 0.000000 0.000000
vt 0.000000 0.000000
vt 0.000000 0.000000
vt 0.000000 0.000000
vt 0.000000 0.000000
vt 0.000000 0.000000
vt 0.000000 0.000000
vt 0.000000 0.000000
vt 0.000000 0.000000
vt 0.000000 0.000000
vt 0.000000 0.000000
vt 0.000000 0.000000
vt 0.000000 0.000000
vt 0.000000 0.000000
vt 0.000000 0.000000
vt 0.000000 0.000000
vt 0.000000 0.000000
vt 0.000000 0.000000
vt 0.000000 0.000000
vt 0.000000 0.000000
vt 0.000000 0.000000
vt 0.000000 0.000000
vt 0.000000 0.000000
vt 0.000000 0.000000
vt 0.000000 0.000000
vt 0.000000 0.000000
vt 0.000000 0.000000
vt 0.000000 0.000000
vt 0.000000 0.000000
vt 0.000000 0.000000
vt 0.000000 0.000000
vt 0.000000 0.000000
vt 0.000000 0.000000
vt 0.000000 0.000000
vt 0.000000 0.000000
vt 0.000000 0.000000
vt 0.000000 0.000000
vt 0.000000 0.000000
vt 0.000000 0.000000
vt 0.000000 0.000000
vt 0.000000 0.000000
vt 0.000000 0.000000
vt 0.000000 0.000000
vt 0.000000 0.000000
vt 0.000000 0.000000
vt 0.000000 0.000000
vt 0.000000 0.000000
vt 0.000000 0.000000
vt 0.000000 0.000000
vt 0.000000 0.000000
vt 0.000000 0.000000
vt 0.000000 0.000000
vt 0.000000 0.000000
vt 0.000000 0.000000
vt 0.000000 0.000000
vt 0.000000 0.000000
vt 0.000000 0.000000
vt 0.000000 0.000000
vt 1.000000 0.000000
vt 1.000000 1.000000
vt 0.000000 1.000000
vn 1.0000 -0.0000 -0.0000
vn 0.0000 0.0000 1.0000
vn 0.0000 0.9952 0.0980
vn 0.0000 -0.7730 -0.6344
vn 0.0000 0.9569 0.2903
vn 0.0000 -0.6344 -0.7730
vn 0.0000 0.8819 0.4714
vn 0.0000 -0.4714 -0.8819
vn 0.0000 -0.0980 0.9952
vn 0.0000 0.7730 0.6344
vn 0.0000 -0.2903 -0.9569
vn 0.0000 -0.2903 0.9569
vn 0.0000 0.6344 0.7730
vn 0.0000 -0.0980 -0.9952
vn 0.0000 -0.4714 0.8819
vn 0.0000 0.4714 0.8819
vn 0.0000 0.0980 -0.9952
vn 0.0000 -0.6344 0.7730
vn 0.0000 0.2903 0.9569
vn 0.0000 0.2903 -0.9569
vn 0.0000 -0.7730 0.6344
vn 0.0000 0.0980 0.9952
vn 0.0000 0.4714 -0.8819
vn 0.0000 -0.8819 0.4714
vn 0.0000 0.6344 -0.7730
vn 0.0000 -0.9569 0.2903
vn 0.0000 0.7730 -0.6344
vn 0.0000 -0.9952 0.0980
vn 0.0000 0.8819 -0.4714
vn -0.0000 -0.9952 -0.0980
vn 0.0000 0.9569 -0.2903
vn 0.0000 -0.9569 -0.2903
vn -0.0000 0.9952 -0.0980
vn 0.0000 -0.8819 -0.4714
vn -1.0000 -0.0000 -0.0000
usemtl Rat_picture
s off
f 1/1/1 2/2/1 4/3/1 3/4/1
usemtl Coin_texture
f 35/5/2 34/6/2 66/7/2 67/8/2
f 22/9/2 21/10/2 53/11/2 54/12/2
f 9/13/2 8/14/2 40/15/2 41/16/2
f 36/17/2 35/5/2 67/8/2 68/18/2
f 23/19/2 22/9/2 54/12/2 55/20/2
f 10/21/2 9/13/2 41/16/2 42/22/2
f 5/23/2 36/17/2 68/18/2 37/24/2
f 24/25/2 23/19/2 55/20/2 56/26/2
f 11/27/2 10/21/2 42/22/2 43/28/2
f 25/29/2 24/25/2 56/26/2 57/30/2
f 12/31/2 11/27/2 43/28/2 44/32/2
f 26/33/2 25/29/2 57/30/2 58/34/2
f 13/35/2 12/31/2 44/32/2 45/36/2
f 27/37/2 26/33/2 58/34/2 59/38/2
f 14/39/2 13/35/2 45/36/2 46/40/2
f 28/41/2 27/37/2 59/38/2 60/42/2
f 15/43/2 14/39/2 46/40/2 47/44/2
f 29/45/2 28/41/2 60/42/2 61/46/2
f 16/47/2 15/43/2 47/44/2 48/48/2
f 30/49/2 29/45/2 61/46/2 62/50/2
f 17/51/2 16/47/2 48/48/2 49/52/2
f 31/53/2 30/49/2 62/50/2 63/54/2
f 18/55/2 17/51/2 49/52/2 50/56/2
f 32/57/2 31/53/2 63/54/2 64/58/2
f 19/59/2 18/55/2 50/56/2 51/60/2
f 6/61/2 5/23/2 37/24/2 38/62/2
f 33/63/2 32/57/2 64/58/2 65/64/2
f 20/65/2 19/59/2 51/60/2 52/66/2
f 7/67/2 6/61/2 38/62/2 39/68/2
f 34/6/2 33/63/2 65/64/2 66/7/2
f 21/10/2 20/65/2 52/66/2 53/11/2
f 8/14/2 7/67/2 39/68/2 40/15/2
f 62/50/3 61/46/3 93/69/3 94/70/3
f 49/52/4 48/48/4 80/71/4 81/72/4
f 63/54/5 62/50/5 94/70/5 95/73/5
f 50/56/6 49/52/6 81/72/6 82/74/6
f 64/58/7 63/54/7 95/73/7 96/75/7
f 51/60/8 50/56/8 82/74/8 83/76/8
f 38/62/9 37/24/9 69/77/9 70/78/9
f 65/64/10 64/58/10 96/75/10 97/79/10
f 52/66/11 51/60/11 83/76/11 84/80/11
f 39/68/12 38/62/12 70/78/12 71/81/12
f 66/7/13 65/64/13 97/79/13 98/82/13
f 53/11/14 52/66/14 84/80/14 85/83/14
f 40/15/15 39/68/15 71/81/15 72/84/15
f 67/8/16 66/7/16 98/82/16 99/85/16
f 54/12/17 53/11/17 85/83/17 86/86/17
f 41/16/18 40/15/18 72/84/18 73/87/18
f 68/18/19 67/8/19 99/85/19 100/88/19
f 55/20/20 54/12/20 86/86/20 87/89/20
f 42/22/21 41/16/21 73/87/21 74/90/21
f 37/24/22 68/18/22 100/88/22 69/77/22
f 56/26/23 55/20/23 87/89/23 88/91/23
f 43/28/24 42/22/24 74/90/24 75/92/24
f 57/30/25 56/26/25 88/91/25 89/93/25
f 44/32/26 43/28/26 75/92/26 76/94/26
f 58/34/27 57/30/27 89/93/27 90/95/27
f 45/36/28 44/32/28 76/94/28 77/96/28
f 59/38/29 58/34/29 90/95/29 91/97/29
f 46/40/30 45/36/30 77/96/30 78/98/30
f 60/42/31 59/38/31 91/97/31 92/99/31
f 47/44/32 46/40/32 78/98/32 79/100/32
f 61/46/33 60/42/33 92/99/33 93/69/33
f 48/48/34 47/44/34 79/100/34 80/71/34
f 70/78/35 69/77/35 100/88/35 99/85/35 98/82/35 97/79/35 96/75/35 95/73/35 94/70/35 93/69/35 92/99/35 91/97/35 90/95/35 89/93/35 88/91/35 87/89/35 86/86/35 85/83/35 84/80/35 83/76/35 82/74/35 81/72/35 80/71/35 79/100/35 78/98/35 77/96/35 76/94/35 75/92/35 74/90/35 73/87/35 72/84/35 71/81/35
f 38/62/1 39/68/1 40/15/1 41/16/1 42/22/1 43/28/1 44/32/1 45/36/1 46/40/1 47/44/1 48/48/1 49/52/1 50/56/1 51/60/1 52/66/1 53/11/1 54/12/1 55/20/1 56/26/1 57/30/1 58/34/1 59/38/1 60/42/1 61/46/1 62/50/1 63/54/1 64/58/1 65/64/1 66/7/1 67/8/1 68/18/1 37/24/1
usemtl Rat_picture.001
f 101/101/35 102/102/35 104/103/35 103/104/35
